<svg preserveAspectRatio="none" width="100%" height="100%" overflow="visible" style="display: block;" viewBox="0 0 2135.7 6472.3" fill="none" xmlns="http://www.w3.org/2000/svg">
<g id="&#209;&#128;&#208;&#176;&#208;&#188;&#208;&#186;&#208;&#184;">
<path id="Vector" d="M1.5 4758.9H1527V6409.8C1527 6444.3 1499 6472.3 1464.5 6472.3H64C29.5 6472.3 1.5 6444.3 1.5 6409.8V4758.9Z" fill="var(--fill-0, #CBBA9E)"/>
<path id="Vector_2" d="M259.9 1153.3H2044.1V2463.7C2044.1 2498.2 2016.1 2526.2 1981.6 2526.2H322.4C287.9 2526.2 259.9 2498.2 259.9 2463.7V1153.3Z" fill="var(--fill-0, #6B4D3B)"/>
<path id="Vector_3" d="M349.1 3756.1H2135.7V4750.5C2135.7 4785 2107.7 4813 2073.2 4813H411.6C377.1 4813 349.1 4785 349.1 4750.5V3756.1Z" fill="var(--fill-0, #6B4D3B)"/>
<path id="Vector_4" d="M1.5 2448.7H1415.4V3759.1C1415.4 3793.6 1387.4 3821.6 1352.9 3821.6H64C29.5 3821.6 1.5 3793.6 1.5 3759.1V2448.7Z" fill="var(--fill-0, #434834)"/>
<path id="Vector_5" d="M0 0H1509.7V1169.7C1509.7 1204.2 1481.7 1232.2 1447.2 1232.2H62.5C28 1232.2 0 1204.2 0 1169.7V0Z" fill="var(--fill-0, #CBBA9E)"/>
</g>
</svg>
