<svg preserveAspectRatio="none" width="100%" height="100%" overflow="visible" style="display: block;" viewBox="0 0 1774 324.4" fill="none" xmlns="http://www.w3.org/2000/svg">
<g id="&#208;&#186;&#209;&#128;&#209;&#131;&#208;&#182;&#208;&#186;&#208;&#184; &#209;&#134;&#208;&#178;&#208;&#181;&#209;&#130;&#208;&#176;">
<path id="Vector" d="M160.2 320.4C71.7 320.4 0 248.7 0 160.2C0 71.7 71.7 0 160.2 0C248.7 0 320.4 71.7 320.4 160.2C320.4 248.7 248.7 320.4 160.2 320.4Z" fill="var(--fill-0, #F5F2E1)"/>
<path id="Vector_2" d="M397.5 320.4C309 320.4 237.3 248.7 237.3 160.2C237.3 71.7 309 0 397.5 0C486 0 557.7 71.7 557.7 160.2C557.7 248.7 486 320.4 397.5 320.4Z" fill="var(--fill-0, #CBBA9E)"/>
<path id="Vector_3" d="M657.6 324.4C569.1 324.4 497.4 252.7 497.4 164.2C497.4 75.7 569.1 4 657.6 4C746.1 4 817.8 75.7 817.8 164.2C817.8 252.7 746.1 324.4 657.6 324.4Z" fill="var(--fill-0, #8A6341)"/>
<path id="Vector_4" d="M896.8 324.4C808.3 324.4 736.6 252.7 736.6 164.2C736.6 75.7 808.3 4 896.8 4C985.3 4 1057 75.7 1057 164.2C1057 252.7 985.3 324.4 896.8 324.4Z" fill="var(--fill-0, #4D2D18)"/>
<path id="Vector_5" d="M1135.7 324.4C1046 324.4 973.4 250.6 975.6 160.4C977.6 75.4001 1046.9 6.10016 1131.9 4.10016C1222.1 2.00016 1295.9 74.5001 1295.9 164.2C1295.9 253.9 1224.2 324.4 1135.7 324.4Z" fill="var(--fill-0, #A6AB8A)"/>
<path id="Vector_6" d="M1385.8 324.4C1296.1 324.4 1223.5 250.6 1225.7 160.4C1227.7 75.4001 1297 6.10016 1382 4.10016C1472.2 2.00016 1546 74.5001 1546 164.2C1546 253.9 1474.3 324.4 1385.8 324.4Z" fill="var(--fill-0, #767A61)"/>
<path id="Vector_7" d="M1613.8 324.4C1524.1 324.4 1451.5 250.6 1453.7 160.4C1455.7 75.4001 1525 6.10016 1610 4.10016C1700.2 2.00016 1774 74.5001 1774 164.2C1774 253.9 1702.3 324.4 1613.8 324.4Z" fill="var(--fill-0, #434834)"/>
</g>
</svg>
