<svg preserveAspectRatio="none" width="100%" height="100%" overflow="visible" style="display: block;" viewBox="0 0 1525.51 2554.41" fill="none" xmlns="http://www.w3.org/2000/svg">
<g id="&#208;&#159;&#208;&#184;&#209;&#129;&#209;&#140;&#208;&#188;&#208;&#190;">
<path id="Vector 1" d="M387.684 3.90549C187.351 118.572 -153.216 488.405 87.1843 1050.41C387.684 1752.91 843.184 1423.91 1298.68 1602.91C1663.08 1746.11 1498.85 2295.57 1371.18 2552.41" stroke="var(--stroke-0, black)" stroke-width="9"/>
<g id="Group 1">
<path id="Vector" d="M913.152 1031.81L12.1843 1278.41L190.298 1929.78L1091.37 1683.27L913.152 1031.81Z" fill="var(--fill-0, #6B4D3B)"/>
<path id="Vector_2" d="M914.384 1037.97L12.1843 1278.41C100.484 1061.21 189.184 850.575 277.484 633.375C278.484 631.775 285.584 621.375 300.184 617.975C313.884 614.675 324.084 619.975 325.884 620.975C522.084 759.975 718.284 899.074 914.484 1038.07" fill="var(--fill-0, #6B4D3B)"/>
<path id="Vector_3" d="M1092.48 1682.58L190.784 1929.48C288.684 1747.38 386.484 1565.38 484.384 1383.28C485.484 1381.98 492.884 1373.08 507.484 1369.48C521.184 1366.08 530.984 1369.98 532.684 1370.58C719.284 1474.58 905.884 1578.58 1092.48 1682.48" fill="var(--fill-0, #39221C)"/>
<path id="Vector_4" d="M775.084 1572.78L759.984 1607.18L12.4843 1278.08C266.684 1376.28 520.884 1474.58 775.184 1572.78" fill="var(--fill-0, #39221C)"/>
<path id="Vector_5" d="M407.984 1673.38L438.484 1695.28L914.084 1031.28C745.384 1245.28 576.684 1459.38 407.984 1673.38Z" fill="var(--fill-0, #39221C)"/>
</g>
</g>
</svg>
